<svg xmlns="http://www.w3.org/2000/svg" xmlns:xlink="http://www.w3.org/1999/xlink" width="500" zoomAndPan="magnify" viewBox="0 0 375 374.999991" height="500" preserveAspectRatio="xMidYMid meet" version="1.0"><defs><clipPath id="id1"><path d="M 23.523438 23 L 351.273438 23 L 351.273438 352 L 23.523438 352 Z M 23.523438 23 " clip-rule="nonzero"/></clipPath></defs><g clip-path="url(#id1)"><path fill="rgb(100%, 100%, 100%)" d="M 336.566406 38.238281 C 321.839844 23.429688 301.757812 19.742188 288.554688 27.425781 C 250.78125 49.445312 172.523438 -6.605469 82.980469 82.996094 C -6.566406 172.597656 49.449219 250.921875 27.445312 288.695312 C 19.761719 301.910156 23.441406 322.003906 38.25 336.738281 C 52.976562 351.554688 73.058594 355.238281 86.261719 347.550781 C 124.035156 325.53125 202.292969 381.582031 291.839844 291.984375 C 381.382812 202.382812 325.367188 124.054688 347.375 86.28125 C 355.078125 73.078125 351.347656 52.976562 336.566406 38.238281 Z M 178.546875 93.433594 C 146.136719 101.632812 101.582031 146.214844 93.410156 178.640625 C 92.066406 183.984375 87.308594 186.839844 81.390625 186.839844 C 80.453125 186.839844 79.492188 186.726562 78.535156 186.5 C 72.925781 185.597656 69.128906 179.226562 70.6875 172.933594 C 81.046875 131.734375 131.636719 81.136719 172.816406 70.742188 C 179.148438 69.253906 185.4375 72.984375 187.039062 79.246094 C 188.640625 85.527344 184.835938 91.824219 178.546875 93.433594 Z M 178.546875 93.433594 " fill-opacity="1" fill-rule="nonzero"/></g></svg>