<?xml version="1.0" standalone="no"?>
<!DOCTYPE svg PUBLIC "-//W3C//DTD SVG 20010904//EN"
 "http://www.w3.org/TR/2001/REC-SVG-20010904/DTD/svg10.dtd">
<svg version="1.0" xmlns="http://www.w3.org/2000/svg"
 width="750.000000pt" height="750.000000pt" viewBox="0 0 750.000000 750.000000"
 preserveAspectRatio="xMidYMid meet">
<metadata>
Created by potrace 1.14, written by Peter Selinger 2001-2017
</metadata>
<g transform="translate(0.000000,750.000000) scale(0.100000,-0.100000)"
fill="#000000" stroke="none">
<path d="M5257 5988 c-21 -4 -73 -24 -115 -44 -86 -40 -149 -61 -208 -69 -51
-7 -293 -7 -369 -1 -85 8 -167 15 -265 23 -112 10 -519 9 -595 0 -398 -50
-746 -194 -1083 -448 -182 -137 -376 -330 -555 -550 -63 -78 -199 -291 -246
-384 -98 -198 -165 -394 -195 -575 -3 -14 -7 -38 -10 -55 -17 -99 -20 -164
-21 -380 0 -132 4 -276 8 -320 4 -44 10 -116 13 -160 3 -44 8 -96 10 -115 4
-45 4 -297 0 -330 -9 -61 -38 -154 -65 -208 -42 -83 -58 -155 -55 -246 9 -258
218 -516 486 -601 128 -41 227 -35 353 21 158 70 201 79 390 78 151 -1 272 -6
392 -19 78 -8 281 -18 368 -18 95 -1 314 11 324 17 3 2 33 7 66 11 32 3 62 8
65 10 3 1 27 6 54 9 27 4 57 11 68 17 10 5 18 8 18 6 0 -7 168 48 268 88 382
151 799 486 1098 880 95 125 159 229 233 375 37 74 70 144 74 155 3 11 15 45
27 75 28 75 67 219 84 315 15 77 17 95 32 215 7 59 7 363 0 470 -12 188 -18
257 -22 280 -3 14 -7 104 -9 200 -5 229 5 283 81 445 33 71 38 90 41 171 3
110 -13 180 -65 284 -109 219 -339 377 -560 384 -42 2 -94 -1 -115 -6z m-1586
-654 c38 -19 79 -91 79 -138 0 -42 -22 -96 -50 -121 -10 -9 -57 -30 -105 -46
-344 -118 -743 -456 -987 -835 -46 -72 -106 -199 -133 -281 -36 -112 -84 -153
-178 -153 -90 0 -152 62 -150 149 1 56 50 197 106 306 169 331 496 692 822
909 73 48 233 140 245 141 3 0 11 4 18 9 8 5 62 25 120 45 113 40 160 43 213
15z"/>
</g>
</svg>
